# MagicaVoxel @ Ephtracy

# group
o 

# material
mtllib Lion.mtl
usemtl palette

# normals
vn -1 0 0
vn 1 0 0
vn 0 0 1
vn 0 0 -1
vn 0 -1 0
vn 0 1 0

# texcoords
vt 0.0332031 0.5
vt 0.0644531 0.5
vt 0.373047 0.5
vt 0.994141 0.5

# verts
v 1.8 2.3 -2.7
v 1.8 2.3 -2.8
v 1.8 2.4 -2.7
v 1.8 2.4 -2.8
v 1.8 2.7 -2.7
v 1.8 2.7 -2.8
v 2.1 2 -2.4
v 2.1 2 -2.5
v 2.1 2 -3
v 2.1 2 -3.1
v 2.1 2.3 -2.5
v 2.1 2.3 -3
v 2.1 2.5 -2.7
v 2.1 2.5 -2.8
v 2.1 2.7 -2.7
v 2.1 2.7 -2.8
v 2.1 2.8 -2.4
v 2.1 2.8 -3.1
v 2.8 2 -2.4
v 2.8 2 -2.5
v 2.8 2 -3
v 2.8 2 -3.1
v 2.8 2.3 -2.4
v 2.8 2.3 -2.5
v 2.8 2.3 -3
v 2.8 2.3 -3.1
v 3 2.2 -2.5
v 3 2.2 -3
v 3 2.3 -2.5
v 3 2.3 -3
v 3 2.4 -2.3
v 3 2.4 -2.4
v 3 2.4 -3.1
v 3 2.4 -3.2
v 3 2.8 -2.4
v 3 2.8 -3.1
v 3 2.9 -2.3
v 3 2.9 -2.4
v 3 2.9 -3.1
v 3 2.9 -3.2
v 3 3 -2.4
v 3 3 -2.5
v 3 3 -3
v 3 3 -3.1
v 3 3.1 -2.5
v 3 3.1 -3
v 3.2 2.3 -2.5
v 3.2 2.3 -2.6
v 3.2 2.3 -2.9
v 3.2 2.3 -3
v 3.2 2.4 -2.5
v 3.2 2.4 -2.6
v 3.2 2.4 -2.9
v 3.2 2.4 -3
v 3.2 2.8 -2.4
v 3.2 2.8 -2.5
v 3.2 2.8 -3
v 3.2 2.8 -3.1
v 3.2 2.9 -2.4
v 3.2 2.9 -2.5
v 3.2 2.9 -3
v 3.2 2.9 -3.1
v 1.9 2.3 -2.7
v 1.9 2.3 -2.8
v 1.9 2.4 -2.7
v 1.9 2.4 -2.8
v 1.9 2.5 -2.7
v 1.9 2.5 -2.8
v 2.3 2.1 -2.4
v 2.3 2.1 -2.5
v 2.3 2.1 -3
v 2.3 2.1 -3.1
v 2.3 2.3 -2.4
v 2.3 2.3 -2.5
v 2.3 2.3 -3
v 2.3 2.3 -3.1
v 2.4 2 -2.4
v 2.4 2 -2.5
v 2.4 2 -3
v 2.4 2 -3.1
v 2.4 2.1 -2.4
v 2.4 2.1 -2.5
v 2.4 2.1 -3
v 2.4 2.1 -3.1
v 3 2.1 -2.4
v 3 2.1 -2.5
v 3 2.1 -3
v 3 2.1 -3.1
v 3 2.2 -2.5
v 3 2.2 -3
v 3 2.3 -2.4
v 3 2.3 -2.5
v 3 2.3 -3
v 3 2.3 -3.1
v 3.1 2 -2.4
v 3.1 2 -2.5
v 3.1 2 -3
v 3.1 2 -3.1
v 3.1 2.1 -2.4
v 3.1 2.1 -2.5
v 3.1 2.1 -3
v 3.1 2.1 -3.1
v 3.1 2.2 -2.5
v 3.1 2.2 -3
v 3.1 2.3 -2.4
v 3.1 2.3 -2.5
v 3.1 2.3 -2.6
v 3.1 2.3 -2.9
v 3.1 2.3 -3
v 3.1 2.3 -3.1
v 3.1 2.4 -2.3
v 3.1 2.4 -2.4
v 3.1 2.4 -2.5
v 3.1 2.4 -2.6
v 3.1 2.4 -2.9
v 3.1 2.4 -3
v 3.1 2.4 -3.1
v 3.1 2.4 -3.2
v 3.1 2.5 -2.4
v 3.1 2.5 -2.5
v 3.1 2.5 -3
v 3.1 2.5 -3.1
v 3.1 2.8 -2.4
v 3.1 2.8 -2.5
v 3.1 2.8 -3
v 3.1 2.8 -3.1
v 3.1 2.9 -2.3
v 3.1 2.9 -2.4
v 3.1 2.9 -2.5
v 3.1 2.9 -2.6
v 3.1 2.9 -2.9
v 3.1 2.9 -3
v 3.1 2.9 -3.1
v 3.1 2.9 -3.2
v 3.1 3 -2.4
v 3.1 3 -2.5
v 3.1 3 -2.6
v 3.1 3 -2.9
v 3.1 3 -3
v 3.1 3 -3.1
v 3.1 3.1 -2.5
v 3.1 3.1 -3
v 3.2 2.5 -2.4
v 3.2 2.5 -2.5
v 3.2 2.5 -3
v 3.2 2.5 -3.1
v 3.2 2.7 -2.4
v 3.2 2.7 -2.5
v 3.2 2.7 -3
v 3.2 2.7 -3.1
v 3.2 2.8 -2.6
v 3.2 2.8 -2.9
v 3.2 2.9 -2.6
v 3.2 2.9 -2.9
v 3.2 3 -2.6
v 3.2 3 -2.9
v 3.3 2.7 -2.4
v 3.3 2.7 -2.5
v 3.3 2.7 -3
v 3.3 2.7 -3.1
v 3.3 2.8 -2.5
v 3.3 2.8 -2.6
v 3.3 2.8 -2.9
v 3.3 2.8 -3
v 3.3 2.9 -2.4
v 3.3 2.9 -2.6
v 3.3 2.9 -2.9
v 3.3 2.9 -3.1
v 3.4 2.3 -2.5
v 3.4 2.3 -2.6
v 3.4 2.3 -2.9
v 3.4 2.3 -3
v 3.4 2.4 -2.6
v 3.4 2.4 -2.9
v 3.4 2.6 -2.6
v 3.4 2.6 -2.7
v 3.4 2.6 -2.8
v 3.4 2.6 -2.9
v 3.4 2.7 -2.6
v 3.4 2.7 -2.7
v 3.4 2.7 -2.8
v 3.4 2.7 -2.9
v 3.4 2.8 -2.5
v 3.4 2.8 -3
v 3.6 2.3 -2.6
v 3.6 2.3 -2.9
v 3.6 2.4 -2.6
v 3.6 2.4 -2.7
v 3.6 2.4 -2.8
v 3.6 2.4 -2.9
v 3.6 2.5 -2.7
v 3.6 2.5 -2.8
v 3.6 2.6 -2.6
v 3.6 2.6 -2.9
v 3 2.4 -2.3
v 3 2.9 -2.3
v 3.1 2.4 -2.3
v 3.1 2.9 -2.3
v 2.1 2 -2.4
v 2.1 2.8 -2.4
v 2.3 2 -2.4
v 2.3 2.1 -2.4
v 2.3 2.3 -2.4
v 2.4 2 -2.4
v 2.4 2.1 -2.4
v 2.8 2 -2.4
v 2.8 2.3 -2.4
v 3 2 -2.4
v 3 2.1 -2.4
v 3 2.3 -2.4
v 3 2.4 -2.4
v 3 2.8 -2.4
v 3 2.9 -2.4
v 3 3 -2.4
v 3.1 2 -2.4
v 3.1 2.1 -2.4
v 3.1 2.3 -2.4
v 3.1 2.4 -2.4
v 3.1 2.5 -2.4
v 3.1 2.8 -2.4
v 3.1 2.9 -2.4
v 3.1 3 -2.4
v 3.2 2.5 -2.4
v 3.2 2.7 -2.4
v 3.2 2.8 -2.4
v 3.2 2.9 -2.4
v 3.3 2.7 -2.4
v 3.3 2.9 -2.4
v 3 2.2 -2.5
v 3 2.3 -2.5
v 3 3 -2.5
v 3 3.1 -2.5
v 3.1 2.2 -2.5
v 3.1 2.3 -2.5
v 3.1 2.4 -2.5
v 3.1 2.5 -2.5
v 3.1 2.8 -2.5
v 3.1 2.9 -2.5
v 3.1 3 -2.5
v 3.1 3.1 -2.5
v 3.2 2.3 -2.5
v 3.2 2.4 -2.5
v 3.2 2.5 -2.5
v 3.2 2.7 -2.5
v 3.2 2.8 -2.5
v 3.2 2.9 -2.5
v 3.3 2.7 -2.5
v 3.3 2.8 -2.5
v 3.4 2.3 -2.5
v 3.4 2.8 -2.5
v 3.1 2.3 -2.6
v 3.1 2.4 -2.6
v 3.1 2.9 -2.6
v 3.1 3 -2.6
v 3.2 2.3 -2.6
v 3.2 2.4 -2.6
v 3.2 2.9 -2.6
v 3.2 3 -2.6
v 3.4 2.3 -2.6
v 3.4 2.4 -2.6
v 3.4 2.6 -2.6
v 3.6 2.3 -2.6
v 3.6 2.4 -2.6
v 3.6 2.6 -2.6
v 1.8 2.3 -2.7
v 1.8 2.4 -2.7
v 1.8 2.7 -2.7
v 1.9 2.3 -2.7
v 1.9 2.4 -2.7
v 1.9 2.5 -2.7
v 2.1 2.5 -2.7
v 2.1 2.7 -2.7
v 3.2 2.8 -2.9
v 3.2 2.9 -2.9
v 3.3 2.8 -2.9
v 3.3 2.9 -2.9
v 2.1 2 -3
v 2.1 2.3 -3
v 2.3 2 -3
v 2.3 2.1 -3
v 2.3 2.3 -3
v 2.4 2 -3
v 2.4 2.1 -3
v 2.8 2 -3
v 2.8 2.3 -3
v 3 2 -3
v 3 2.1 -3
v 3 2.2 -3
v 3 2.3 -3
v 3.1 2 -3
v 3.1 2.1 -3
v 2.1 2 -2.5
v 2.1 2.3 -2.5
v 2.3 2 -2.5
v 2.3 2.1 -2.5
v 2.3 2.3 -2.5
v 2.4 2 -2.5
v 2.4 2.1 -2.5
v 2.8 2 -2.5
v 2.8 2.3 -2.5
v 3 2 -2.5
v 3 2.1 -2.5
v 3 2.2 -2.5
v 3 2.3 -2.5
v 3.1 2 -2.5
v 3.1 2.1 -2.5
v 3.2 2.8 -2.6
v 3.2 2.9 -2.6
v 3.3 2.8 -2.6
v 3.3 2.9 -2.6
v 1.8 2.3 -2.8
v 1.8 2.4 -2.8
v 1.8 2.7 -2.8
v 1.9 2.3 -2.8
v 1.9 2.4 -2.8
v 1.9 2.5 -2.8
v 2.1 2.5 -2.8
v 2.1 2.7 -2.8
v 3.1 2.3 -2.9
v 3.1 2.4 -2.9
v 3.1 2.9 -2.9
v 3.1 3 -2.9
v 3.2 2.3 -2.9
v 3.2 2.4 -2.9
v 3.2 2.9 -2.9
v 3.2 3 -2.9
v 3.4 2.3 -2.9
v 3.4 2.4 -2.9
v 3.4 2.6 -2.9
v 3.6 2.3 -2.9
v 3.6 2.4 -2.9
v 3.6 2.6 -2.9
v 3 2.2 -3
v 3 2.3 -3
v 3 3 -3
v 3 3.1 -3
v 3.1 2.2 -3
v 3.1 2.3 -3
v 3.1 2.4 -3
v 3.1 2.5 -3
v 3.1 2.8 -3
v 3.1 2.9 -3
v 3.1 3 -3
v 3.1 3.1 -3
v 3.2 2.3 -3
v 3.2 2.4 -3
v 3.2 2.5 -3
v 3.2 2.7 -3
v 3.2 2.8 -3
v 3.2 2.9 -3
v 3.3 2.7 -3
v 3.3 2.8 -3
v 3.4 2.3 -3
v 3.4 2.8 -3
v 2.1 2 -3.1
v 2.1 2.8 -3.1
v 2.3 2 -3.1
v 2.3 2.1 -3.1
v 2.3 2.3 -3.1
v 2.4 2 -3.1
v 2.4 2.1 -3.1
v 2.8 2 -3.1
v 2.8 2.3 -3.1
v 3 2 -3.1
v 3 2.1 -3.1
v 3 2.3 -3.1
v 3 2.4 -3.1
v 3 2.8 -3.1
v 3 2.9 -3.1
v 3 3 -3.1
v 3.1 2 -3.1
v 3.1 2.1 -3.1
v 3.1 2.3 -3.1
v 3.1 2.4 -3.1
v 3.1 2.5 -3.1
v 3.1 2.8 -3.1
v 3.1 2.9 -3.1
v 3.1 3 -3.1
v 3.2 2.5 -3.1
v 3.2 2.7 -3.1
v 3.2 2.8 -3.1
v 3.2 2.9 -3.1
v 3.3 2.7 -3.1
v 3.3 2.9 -3.1
v 3 2.4 -3.2
v 3 2.9 -3.2
v 3.1 2.4 -3.2
v 3.1 2.9 -3.2
v 2.1 2 -2.4
v 2.3 2 -2.4
v 2.4 2 -2.4
v 2.8 2 -2.4
v 3 2 -2.4
v 3.1 2 -2.4
v 2.1 2 -2.5
v 2.3 2 -2.5
v 2.4 2 -2.5
v 2.8 2 -2.5
v 3 2 -2.5
v 3.1 2 -2.5
v 2.1 2 -3
v 2.3 2 -3
v 2.4 2 -3
v 2.8 2 -3
v 3 2 -3
v 3.1 2 -3
v 2.1 2 -3.1
v 2.3 2 -3.1
v 2.4 2 -3.1
v 2.8 2 -3.1
v 3 2 -3.1
v 3.1 2 -3.1
v 3 2.2 -2.5
v 3.1 2.2 -2.5
v 3 2.2 -3
v 3.1 2.2 -3
v 2.3 2.3 -2.4
v 2.8 2.3 -2.4
v 3 2.3 -2.4
v 3.1 2.3 -2.4
v 2.1 2.3 -2.5
v 2.3 2.3 -2.5
v 2.8 2.3 -2.5
v 3 2.3 -2.5
v 3.1 2.3 -2.5
v 3.2 2.3 -2.5
v 3.4 2.3 -2.5
v 3.1 2.3 -2.6
v 3.2 2.3 -2.6
v 3.4 2.3 -2.6
v 3.6 2.3 -2.6
v 1.8 2.3 -2.7
v 1.9 2.3 -2.7
v 3.4 2.3 -2.7
v 3.5 2.3 -2.7
v 1.8 2.3 -2.8
v 1.9 2.3 -2.8
v 3.4 2.3 -2.8
v 3.5 2.3 -2.8
v 3.1 2.3 -2.9
v 3.2 2.3 -2.9
v 3.4 2.3 -2.9
v 3.6 2.3 -2.9
v 2.1 2.3 -3
v 2.3 2.3 -3
v 2.8 2.3 -3
v 3 2.3 -3
v 3.1 2.3 -3
v 3.2 2.3 -3
v 3.4 2.3 -3
v 2.3 2.3 -3.1
v 2.8 2.3 -3.1
v 3 2.3 -3.1
v 3.1 2.3 -3.1
v 3 2.4 -2.3
v 3.1 2.4 -2.3
v 3 2.4 -2.4
v 3.1 2.4 -2.4
v 3.1 2.4 -2.5
v 3.2 2.4 -2.5
v 3.1 2.4 -2.6
v 3.2 2.4 -2.6
v 3.1 2.4 -2.9
v 3.2 2.4 -2.9
v 3.1 2.4 -3
v 3.2 2.4 -3
v 3 2.4 -3.1
v 3.1 2.4 -3.1
v 3 2.4 -3.2
v 3.1 2.4 -3.2
v 3.1 2.5 -2.4
v 3.2 2.5 -2.4
v 3.1 2.5 -2.5
v 3.2 2.5 -2.5
v 1.9 2.5 -2.7
v 2.1 2.5 -2.7
v 1.9 2.5 -2.8
v 2.1 2.5 -2.8
v 3.1 2.5 -3
v 3.2 2.5 -3
v 3.1 2.5 -3.1
v 3.2 2.5 -3.1
v 3.2 2.7 -2.4
v 3.3 2.7 -2.4
v 3.2 2.7 -2.5
v 3.3 2.7 -2.5
v 3.2 2.7 -3
v 3.3 2.7 -3
v 3.2 2.7 -3.1
v 3.3 2.7 -3.1
v 2.3 2.1 -2.4
v 2.4 2.1 -2.4
v 3 2.1 -2.4
v 3.1 2.1 -2.4
v 2.3 2.1 -2.5
v 2.4 2.1 -2.5
v 3 2.1 -2.5
v 3.1 2.1 -2.5
v 2.3 2.1 -3
v 2.4 2.1 -3
v 3 2.1 -3
v 3.1 2.1 -3
v 2.3 2.1 -3.1
v 2.4 2.1 -3.1
v 3 2.1 -3.1
v 3.1 2.1 -3.1
v 3.4 2.6 -2.6
v 3.6 2.6 -2.6
v 3.4 2.6 -2.7
v 3.4 2.6 -2.8
v 3.4 2.6 -2.9
v 3.6 2.6 -2.9
v 1.8 2.7 -2.7
v 2.1 2.7 -2.7
v 1.8 2.7 -2.8
v 2.1 2.7 -2.8
v 2.1 2.8 -2.4
v 3 2.8 -2.4
v 3.1 2.8 -2.4
v 3.2 2.8 -2.4
v 3.1 2.8 -2.5
v 3.2 2.8 -2.5
v 3.3 2.8 -2.5
v 3.4 2.8 -2.5
v 3.2 2.8 -2.6
v 3.3 2.8 -2.6
v 3.2 2.8 -2.9
v 3.3 2.8 -2.9
v 3.1 2.8 -3
v 3.2 2.8 -3
v 3.3 2.8 -3
v 3.4 2.8 -3
v 2.1 2.8 -3.1
v 3 2.8 -3.1
v 3.1 2.8 -3.1
v 3.2 2.8 -3.1
v 3 2.9 -2.3
v 3.1 2.9 -2.3
v 3 2.9 -2.4
v 3.1 2.9 -2.4
v 3.2 2.9 -2.4
v 3.3 2.9 -2.4
v 3.1 2.9 -2.5
v 3.2 2.9 -2.5
v 3.1 2.9 -2.6
v 3.2 2.9 -2.6
v 3.3 2.9 -2.6
v 3.1 2.9 -2.9
v 3.2 2.9 -2.9
v 3.3 2.9 -2.9
v 3.1 2.9 -3
v 3.2 2.9 -3
v 3 2.9 -3.1
v 3.1 2.9 -3.1
v 3.2 2.9 -3.1
v 3.3 2.9 -3.1
v 3 2.9 -3.2
v 3.1 2.9 -3.2
v 3 3 -2.4
v 3.1 3 -2.4
v 3 3 -2.5
v 3.1 3 -2.5
v 3.1 3 -2.6
v 3.2 3 -2.6
v 3.1 3 -2.9
v 3.2 3 -2.9
v 3 3 -3
v 3.1 3 -3
v 3 3 -3.1
v 3.1 3 -3.1
v 3 3.1 -2.5
v 3.1 3.1 -2.5
v 3 3.1 -3
v 3.1 3.1 -3

# faces
f 3/3/1 2/3/1 1/3/1
f 4/3/1 2/3/1 3/3/1
f 5/2/1 4/2/1 3/2/1
f 6/2/1 4/2/1 5/2/1
f 11/2/1 8/2/1 7/2/1
f 12/2/1 10/2/1 9/2/1
f 13/2/1 12/2/1 11/2/1
f 14/2/1 12/2/1 13/2/1
f 15/2/1 13/2/1 11/2/1
f 16/2/1 12/2/1 14/2/1
f 17/2/1 11/2/1 7/2/1
f 17/2/1 16/2/1 15/2/1
f 17/2/1 15/2/1 11/2/1
f 18/2/1 12/2/1 16/2/1
f 18/2/1 16/2/1 17/2/1
f 18/2/1 10/2/1 12/2/1
f 23/2/1 20/2/1 19/2/1
f 24/2/1 20/2/1 23/2/1
f 25/2/1 22/2/1 21/2/1
f 26/2/1 22/2/1 25/2/1
f 29/3/1 28/3/1 27/3/1
f 30/3/1 28/3/1 29/3/1
f 35/3/1 32/3/1 31/3/1
f 36/3/1 34/3/1 33/3/1
f 37/3/1 35/3/1 31/3/1
f 37/3/1 36/3/1 35/3/1
f 38/3/1 36/3/1 37/3/1
f 39/3/1 34/3/1 36/3/1
f 39/3/1 36/3/1 38/3/1
f 40/3/1 34/3/1 39/3/1
f 41/3/1 39/3/1 38/3/1
f 42/3/1 39/3/1 41/3/1
f 43/3/1 39/3/1 42/3/1
f 44/3/1 39/3/1 43/3/1
f 45/3/1 43/3/1 42/3/1
f 46/3/1 43/3/1 45/3/1
f 51/2/1 48/2/1 47/2/1
f 52/2/1 48/2/1 51/2/1
f 53/2/1 50/2/1 49/2/1
f 54/2/1 50/2/1 53/2/1
f 59/2/1 56/2/1 55/2/1
f 60/2/1 56/2/1 59/2/1
f 61/2/1 58/2/1 57/2/1
f 62/2/1 58/2/1 61/2/1
f 63/3/2 64/3/2 65/3/2
f 65/3/2 64/3/2 66/3/2
f 65/2/2 66/2/2 67/2/2
f 67/2/2 66/2/2 68/2/2
f 69/2/2 70/2/2 73/2/2
f 73/2/2 70/2/2 74/2/2
f 71/2/2 72/2/2 75/2/2
f 75/2/2 72/2/2 76/2/2
f 77/1/2 78/1/2 81/1/2
f 81/1/2 78/1/2 82/1/2
f 79/1/2 80/1/2 83/1/2
f 83/1/2 80/1/2 84/1/2
f 85/2/2 86/2/2 89/2/2
f 87/2/2 88/2/2 90/2/2
f 85/2/2 89/2/2 91/2/2
f 91/2/2 89/2/2 92/2/2
f 90/2/2 88/2/2 93/2/2
f 93/2/2 88/2/2 94/2/2
f 95/1/2 96/1/2 99/1/2
f 99/1/2 96/1/2 100/1/2
f 97/1/2 98/1/2 101/1/2
f 101/1/2 98/1/2 102/1/2
f 103/3/2 104/3/2 106/3/2
f 106/3/2 104/3/2 107/3/2
f 107/3/2 104/3/2 108/3/2
f 108/3/2 104/3/2 109/3/2
f 105/3/2 106/3/2 112/3/2
f 106/3/2 107/3/2 112/3/2
f 112/3/2 107/3/2 113/3/2
f 113/3/2 107/3/2 114/3/2
f 108/3/2 109/3/2 115/3/2
f 109/3/2 110/3/2 115/3/2
f 115/3/2 110/3/2 116/3/2
f 116/3/2 110/3/2 117/3/2
f 112/3/2 113/3/2 119/3/2
f 111/3/2 112/3/2 119/3/2
f 119/3/2 113/3/2 120/3/2
f 116/3/2 117/3/2 121/3/2
f 117/3/2 118/3/2 121/3/2
f 121/3/2 118/3/2 122/3/2
f 111/3/2 119/3/2 123/3/2
f 122/3/2 118/3/2 126/3/2
f 123/3/2 124/3/2 127/3/2
f 111/3/2 123/3/2 127/3/2
f 127/3/2 124/3/2 128/3/2
f 128/3/2 124/3/2 129/3/2
f 125/3/2 126/3/2 132/3/2
f 126/3/2 118/3/2 133/3/2
f 132/3/2 126/3/2 133/3/2
f 133/3/2 118/3/2 134/3/2
f 129/3/2 130/3/2 135/3/2
f 128/3/2 129/3/2 135/3/2
f 135/3/2 130/3/2 136/3/2
f 136/3/2 130/3/2 137/3/2
f 131/3/2 132/3/2 138/3/2
f 132/3/2 133/3/2 138/3/2
f 138/3/2 133/3/2 139/3/2
f 139/3/2 133/3/2 140/3/2
f 136/3/2 137/3/2 141/3/2
f 138/3/2 139/3/2 141/3/2
f 137/3/2 138/3/2 141/3/2
f 141/3/2 139/3/2 142/3/2
f 143/3/2 144/3/2 147/3/2
f 147/3/2 144/3/2 148/3/2
f 145/3/2 146/3/2 149/3/2
f 149/3/2 146/3/2 150/3/2
f 151/3/2 152/3/2 153/3/2
f 153/3/2 152/3/2 154/3/2
f 153/3/2 154/3/2 155/3/2
f 155/3/2 154/3/2 156/3/2
f 157/2/2 158/2/2 161/2/2
f 159/2/2 160/2/2 164/2/2
f 161/2/2 162/2/2 165/2/2
f 157/2/2 161/2/2 165/2/2
f 165/2/2 162/2/2 166/2/2
f 163/2/2 164/2/2 167/2/2
f 164/2/2 160/2/2 168/2/2
f 167/2/2 164/2/2 168/2/2
f 169/2/2 170/2/2 173/2/2
f 171/2/2 172/2/2 174/2/2
f 169/2/2 173/2/2 175/2/2
f 174/2/2 172/2/2 178/2/2
f 169/2/2 175/2/2 179/2/2
f 175/4/2 176/4/2 179/4/2
f 176/2/2 177/2/2 180/2/2
f 179/4/2 176/4/2 180/4/2
f 177/4/2 178/4/2 181/4/2
f 180/2/2 177/2/2 181/2/2
f 178/2/2 172/2/2 182/2/2
f 181/4/2 178/4/2 182/4/2
f 169/2/2 179/2/2 183/2/2
f 179/2/2 180/2/2 183/2/2
f 181/2/2 182/2/2 183/2/2
f 180/2/2 181/2/2 183/2/2
f 182/2/2 172/2/2 184/2/2
f 183/2/2 182/2/2 184/2/2
f 185/1/2 186/1/2 187/1/2
f 187/1/2 186/1/2 188/1/2
f 188/1/2 186/1/2 189/1/2
f 189/1/2 186/1/2 190/1/2
f 187/2/2 188/2/2 191/2/2
f 188/4/2 189/4/2 191/4/2
f 189/2/2 190/2/2 192/2/2
f 191/4/2 189/4/2 192/4/2
f 187/2/2 191/2/2 193/2/2
f 191/2/2 192/2/2 193/2/2
f 192/2/2 190/2/2 194/2/2
f 193/2/2 192/2/2 194/2/2
f 197/3/3 196/3/3 195/3/3
f 198/3/3 196/3/3 197/3/3
f 201/2/3 200/2/3 199/2/3
f 202/2/3 200/2/3 201/2/3
f 203/2/3 200/2/3 202/2/3
f 204/1/3 202/1/3 201/1/3
f 205/1/3 202/1/3 204/1/3
f 207/2/3 200/2/3 203/2/3
f 208/2/3 207/2/3 206/2/3
f 209/2/3 207/2/3 208/2/3
f 210/2/3 200/2/3 207/2/3
f 210/2/3 207/2/3 209/2/3
f 211/2/3 200/2/3 210/2/3
f 212/2/3 200/2/3 211/2/3
f 215/1/3 209/1/3 208/1/3
f 216/1/3 209/1/3 215/1/3
f 217/3/3 211/3/3 210/3/3
f 218/3/3 211/3/3 217/3/3
f 221/3/3 214/3/3 213/3/3
f 222/3/3 214/3/3 221/3/3
f 223/3/3 220/3/3 219/3/3
f 224/3/3 220/3/3 223/3/3
f 225/3/3 220/3/3 224/3/3
f 227/2/3 226/2/3 225/2/3
f 227/2/3 225/2/3 224/2/3
f 228/2/3 226/2/3 227/2/3
f 233/3/3 230/3/3 229/3/3
f 234/3/3 230/3/3 233/3/3
f 239/3/3 232/3/3 231/3/3
f 240/3/3 232/3/3 239/3/3
f 242/3/3 236/3/3 235/3/3
f 243/3/3 236/3/3 242/3/3
f 245/3/3 238/3/3 237/3/3
f 246/3/3 238/3/3 245/3/3
f 247/2/3 244/2/3 243/2/3
f 247/2/3 242/2/3 241/2/3
f 247/2/3 243/2/3 242/2/3
f 249/2/3 247/2/3 241/2/3
f 249/2/3 248/2/3 247/2/3
f 250/2/3 248/2/3 249/2/3
f 255/3/3 252/3/3 251/3/3
f 256/3/3 252/3/3 255/3/3
f 257/3/3 254/3/3 253/3/3
f 258/3/3 254/3/3 257/3/3
f 262/1/3 260/1/3 259/1/3
f 263/2/3 261/2/3 260/2/3
f 263/1/3 260/1/3 262/1/3
f 264/2/3 261/2/3 263/2/3
f 268/3/3 266/3/3 265/3/3
f 269/2/3 267/2/3 266/2/3
f 269/3/3 266/3/3 268/3/3
f 270/2/3 267/2/3 269/2/3
f 271/2/3 267/2/3 270/2/3
f 272/2/3 267/2/3 271/2/3
f 275/2/3 274/2/3 273/2/3
f 276/2/3 274/2/3 275/2/3
f 279/2/3 278/2/3 277/2/3
f 280/2/3 278/2/3 279/2/3
f 281/2/3 278/2/3 280/2/3
f 282/1/3 280/1/3 279/1/3
f 283/1/3 280/1/3 282/1/3
f 286/2/3 285/2/3 284/2/3
f 287/2/3 285/2/3 286/2/3
f 288/2/3 285/2/3 287/2/3
f 289/2/3 285/2/3 288/2/3
f 290/1/3 287/1/3 286/1/3
f 291/1/3 287/1/3 290/1/3
f 292/2/4 293/2/4 294/2/4
f 294/2/4 293/2/4 295/2/4
f 295/2/4 293/2/4 296/2/4
f 294/1/4 295/1/4 297/1/4
f 297/1/4 295/1/4 298/1/4
f 299/2/4 300/2/4 301/2/4
f 301/2/4 300/2/4 302/2/4
f 302/2/4 300/2/4 303/2/4
f 303/2/4 300/2/4 304/2/4
f 301/1/4 302/1/4 305/1/4
f 305/1/4 302/1/4 306/1/4
f 307/2/4 308/2/4 309/2/4
f 309/2/4 308/2/4 310/2/4
f 311/3/4 312/3/4 314/3/4
f 312/2/4 313/2/4 315/2/4
f 314/3/4 312/3/4 315/3/4
f 315/2/4 313/2/4 316/2/4
f 316/2/4 313/2/4 317/2/4
f 317/2/4 313/2/4 318/2/4
f 319/3/4 320/3/4 323/3/4
f 323/3/4 320/3/4 324/3/4
f 321/3/4 322/3/4 325/3/4
f 325/3/4 322/3/4 326/3/4
f 327/1/4 328/1/4 330/1/4
f 328/2/4 329/2/4 331/2/4
f 330/1/4 328/1/4 331/1/4
f 331/2/4 329/2/4 332/2/4
f 333/3/4 334/3/4 337/3/4
f 337/3/4 334/3/4 338/3/4
f 335/3/4 336/3/4 343/3/4
f 343/3/4 336/3/4 344/3/4
f 339/3/4 340/3/4 346/3/4
f 346/3/4 340/3/4 347/3/4
f 341/3/4 342/3/4 349/3/4
f 349/3/4 342/3/4 350/3/4
f 347/2/4 348/2/4 351/2/4
f 345/2/4 346/2/4 351/2/4
f 346/2/4 347/2/4 351/2/4
f 345/2/4 351/2/4 353/2/4
f 351/2/4 352/2/4 353/2/4
f 353/2/4 352/2/4 354/2/4
f 355/2/4 356/2/4 357/2/4
f 357/2/4 356/2/4 358/2/4
f 358/2/4 356/2/4 359/2/4
f 357/1/4 358/1/4 360/1/4
f 360/1/4 358/1/4 361/1/4
f 359/2/4 356/2/4 363/2/4
f 362/2/4 363/2/4 364/2/4
f 364/2/4 363/2/4 365/2/4
f 363/2/4 356/2/4 366/2/4
f 365/2/4 363/2/4 366/2/4
f 366/2/4 356/2/4 367/2/4
f 367/2/4 356/2/4 368/2/4
f 364/1/4 365/1/4 371/1/4
f 371/1/4 365/1/4 372/1/4
f 366/3/4 367/3/4 373/3/4
f 373/3/4 367/3/4 374/3/4
f 369/3/4 370/3/4 377/3/4
f 377/3/4 370/3/4 378/3/4
f 375/3/4 376/3/4 379/3/4
f 379/3/4 376/3/4 380/3/4
f 380/3/4 376/3/4 381/3/4
f 381/2/4 382/2/4 383/2/4
f 380/2/4 381/2/4 383/2/4
f 383/2/4 382/2/4 384/2/4
f 385/3/4 386/3/4 387/3/4
f 387/3/4 386/3/4 388/3/4
f 395/2/5 390/2/5 389/2/5
f 396/1/5 391/1/5 390/1/5
f 396/2/5 390/2/5 395/2/5
f 397/1/5 391/1/5 396/1/5
f 398/2/5 393/2/5 392/2/5
f 399/1/5 394/1/5 393/1/5
f 399/2/5 393/2/5 398/2/5
f 400/1/5 394/1/5 399/1/5
f 407/2/5 402/2/5 401/2/5
f 408/1/5 403/1/5 402/1/5
f 408/2/5 402/2/5 407/2/5
f 409/1/5 403/1/5 408/1/5
f 410/2/5 405/2/5 404/2/5
f 411/1/5 406/1/5 405/1/5
f 411/2/5 405/2/5 410/2/5
f 412/1/5 406/1/5 411/1/5
f 415/3/5 414/3/5 413/3/5
f 416/3/5 414/3/5 415/3/5
f 422/2/5 418/2/5 417/2/5
f 423/2/5 418/2/5 422/2/5
f 424/3/5 420/3/5 419/3/5
f 425/3/5 420/3/5 424/3/5
f 429/2/5 427/2/5 426/2/5
f 430/2/5 427/2/5 429/2/5
f 434/2/5 430/2/5 429/2/5
f 434/1/5 431/1/5 430/1/5
f 435/1/5 431/1/5 434/1/5
f 436/3/5 433/3/5 432/3/5
f 437/3/5 433/3/5 436/3/5
f 438/2/5 434/2/5 429/2/5
f 438/2/5 435/2/5 434/2/5
f 439/1/5 431/1/5 435/1/5
f 439/2/5 435/2/5 438/2/5
f 440/3/5 429/3/5 428/3/5
f 441/2/5 438/2/5 429/2/5
f 441/3/5 429/3/5 440/3/5
f 442/1/5 439/1/5 438/1/5
f 442/2/5 438/2/5 441/2/5
f 443/1/5 431/1/5 439/1/5
f 443/1/5 439/1/5 442/1/5
f 444/2/5 423/2/5 422/2/5
f 444/2/5 422/2/5 421/2/5
f 444/2/5 424/2/5 423/2/5
f 445/2/5 424/2/5 444/2/5
f 446/2/5 424/2/5 445/2/5
f 447/2/5 424/2/5 446/2/5
f 449/2/5 442/2/5 441/2/5
f 450/2/5 442/2/5 449/2/5
f 451/2/5 446/2/5 445/2/5
f 452/2/5 446/2/5 451/2/5
f 453/3/5 448/3/5 447/3/5
f 454/3/5 448/3/5 453/3/5
f 457/3/5 456/3/5 455/3/5
f 458/3/5 456/3/5 457/3/5
f 461/3/5 460/3/5 459/3/5
f 462/3/5 460/3/5 461/3/5
f 465/3/5 464/3/5 463/3/5
f 466/3/5 464/3/5 465/3/5
f 469/3/5 468/3/5 467/3/5
f 470/3/5 468/3/5 469/3/5
f 473/3/5 472/3/5 471/3/5
f 474/3/5 472/3/5 473/3/5
f 477/2/5 476/2/5 475/2/5
f 478/2/5 476/2/5 477/2/5
f 481/3/5 480/3/5 479/3/5
f 482/3/5 480/3/5 481/3/5
f 485/2/5 484/2/5 483/2/5
f 486/2/5 484/2/5 485/2/5
f 489/2/5 488/2/5 487/2/5
f 490/2/5 488/2/5 489/2/5
f 491/1/6 492/1/6 495/1/6
f 495/1/6 492/1/6 496/1/6
f 493/1/6 494/1/6 497/1/6
f 497/1/6 494/1/6 498/1/6
f 499/1/6 500/1/6 503/1/6
f 503/1/6 500/1/6 504/1/6
f 501/1/6 502/1/6 505/1/6
f 505/1/6 502/1/6 506/1/6
f 507/2/6 508/2/6 509/2/6
f 509/2/6 508/2/6 510/2/6
f 510/2/6 508/2/6 511/2/6
f 511/2/6 508/2/6 512/2/6
f 513/2/6 514/2/6 515/2/6
f 515/2/6 514/2/6 516/2/6
f 519/3/6 520/3/6 521/3/6
f 521/3/6 520/3/6 522/3/6
f 523/2/6 524/2/6 526/2/6
f 525/2/6 526/2/6 527/2/6
f 526/2/6 524/2/6 528/2/6
f 527/2/6 526/2/6 528/2/6
f 528/2/6 524/2/6 531/2/6
f 531/2/6 524/2/6 532/2/6
f 517/2/6 518/2/6 533/2/6
f 533/2/6 518/2/6 534/2/6
f 529/3/6 530/3/6 535/3/6
f 535/3/6 530/3/6 536/3/6
f 537/3/6 538/3/6 539/3/6
f 539/3/6 538/3/6 540/3/6
f 541/2/6 542/2/6 544/2/6
f 543/3/6 544/3/6 545/3/6
f 544/2/6 542/2/6 546/2/6
f 545/3/6 544/3/6 546/3/6
f 546/2/6 542/2/6 547/2/6
f 548/3/6 549/3/6 551/3/6
f 549/2/6 550/2/6 552/2/6
f 551/3/6 549/3/6 552/3/6
f 552/2/6 550/2/6 555/2/6
f 555/2/6 550/2/6 556/2/6
f 553/3/6 554/3/6 557/3/6
f 557/3/6 554/3/6 558/3/6
f 559/3/6 560/3/6 561/3/6
f 561/3/6 560/3/6 562/3/6
f 563/3/6 564/3/6 565/3/6
f 565/3/6 564/3/6 566/3/6
f 567/3/6 568/3/6 569/3/6
f 569/3/6 568/3/6 570/3/6
f 571/3/6 572/3/6 573/3/6
f 573/3/6 572/3/6 574/3/6
